<?xml version="1.0" encoding="UTF-8" standalone="no"?>
<!-- Generator: Adobe Illustrator 17.1.0, SVG Export Plug-In . SVG Version: 6.00 Build 0)  -->

<svg
   xmlns:dc="http://purl.org/dc/elements/1.1/"
   xmlns:cc="http://creativecommons.org/ns#"
   xmlns:rdf="http://www.w3.org/1999/02/22-rdf-syntax-ns#"
   xmlns:svg="http://www.w3.org/2000/svg"
   xmlns="http://www.w3.org/2000/svg"
   xmlns:sodipodi="http://sodipodi.sourceforge.net/DTD/sodipodi-0.dtd"
   xmlns:inkscape="http://www.inkscape.org/namespaces/inkscape"
   id="Layer_1"
   style="enable-background:new 0 0 512 512;"
   viewBox="0 0 512 512"
   height="50px"
   width="50px"
   x="0px"
   y="0px"
   version="1.1"
   xml:space="preserve"
   sodipodi:docname="function.svg"
   inkscape:version="0.92.3 (2405546, 2018-03-11)"><metadata
   id="metadata13"><rdf:RDF><cc:Work
       rdf:about=""><dc:format>image/svg+xml</dc:format><dc:type
         rdf:resource="http://purl.org/dc/dcmitype/StillImage" /></cc:Work></rdf:RDF></metadata><defs
   id="defs11" /><sodipodi:namedview
   pagecolor="#ffffff"
   bordercolor="#666666"
   borderopacity="1"
   objecttolerance="10"
   gridtolerance="10"
   guidetolerance="10"
   inkscape:pageopacity="0"
   inkscape:pageshadow="2"
   inkscape:window-width="2560"
   inkscape:window-height="1387"
   id="namedview9"
   showgrid="false"
   inkscape:zoom="4.72"
   inkscape:cx="25"
   inkscape:cy="25"
   inkscape:window-x="-8"
   inkscape:window-y="-8"
   inkscape:window-maximized="1"
   inkscape:current-layer="Layer_1" />
<path
   d="M 491.842,156.429 C 472.371,110.484 439.907,71.416 399.057,43.791 358.221,16.167 308.896,-0.007 256,0 220.745,-0.002 187.052,7.181 156.427,20.159 110.48,39.631 71.414,72.096 43.79,112.945 16.166,153.783 -0.007,203.107 0,256 c -0.002,35.253 7.18,68.946 20.158,99.571 19.471,45.945 51.935,85.013 92.785,112.638 40.837,27.625 90.163,43.798 143.057,43.791 35.255,0.002 68.948,-7.181 99.573,-20.159 C 401.519,472.37 440.586,439.904 468.21,399.055 495.834,358.217 512.007,308.893 512,256 c 0.002,-35.254 -7.18,-68.946 -20.158,-99.571 z"
   id="path2"
   inkscape:connector-curvature="0"
   style="fill:#ffffff"
   sodipodi:nodetypes="ccccccccccccc" />
<path
   fill="#000"
   d="M 322.797 72.308 h -14.134 c -19.28 -0.003 -37.373 6.627 -51.694 17.927 c -7.167 5.651 -13.414 12.476 -18.435 20.242 c -5.021 7.764 -8.814 16.476 -11.062 25.842 l -42.217 175.905 c -1.357 5.651 -3.625 10.849 -6.632 15.501 c -4.509 6.976 -10.698 12.715 -17.921 16.696 c -7.229 3.98 -15.45 6.207 -24.163 6.209 h -14.134 c -9.222 0 -16.699 7.477 -16.699 16.699 c 0 9.222 7.477 16.699 16.699 16.699 h 14.134 c 19.28 0.003 37.373 -6.627 51.694 -17.927 c 7.167 -5.651 13.414 -12.475 18.435 -20.242 c 5.021 -7.764 8.814 -16.476 11.062 -25.842 l 42.217 -175.905 c 1.357 -5.651 3.625 -10.849 6.632 -15.501 c 4.509 -6.976 10.698 -12.715 17.921 -16.696 c 7.229 -3.98 15.45 -6.209 24.163 -6.209 h 14.134 c 9.222 0 16.699 -7.477 16.699 -16.699 C 339.496 79.785 332.02 72.308 322.797 72.308 Z"
   id="path4" />
<path
   fill="#000"
   d="M 324.148 333.929 l 21.59 -21.59 c 6.522 -6.522 6.522 -17.094 0 -23.616 c -6.521 -6.521 -17.094 -6.521 -23.616 0 l -21.59 21.59 l -21.59 -21.59 c -6.522 -6.522 -17.094 -6.522 -23.616 0 c -6.522 6.522 -6.522 17.095 0 23.616 l 21.59 21.59 l -21.59 21.59 c -6.522 6.522 -6.522 17.094 0 23.616 c 6.522 6.522 17.095 6.522 23.616 0 l 21.59 -21.59 l 21.59 21.59 c 6.522 6.522 17.095 6.522 23.616 0 c 6.522 -6.522 6.522 -17.095 0 -23.616 L 324.148 333.929 Z"
   id="path6" />
</svg>