<?xml version="1.0" encoding="UTF-8"?>
<svg width="14px" height="14px" viewBox="0 0 14 14" version="1.1" xmlns="http://www.w3.org/2000/svg" xmlns:xlink="http://www.w3.org/1999/xlink">
    <!-- Generator: Sketch 46.2 (44496) - http://www.bohemiancoding.com/sketch -->
    <title>e9f2</title>
    <desc>Created with Sketch.</desc>
    <defs></defs>
    <g id="Symbols" stroke="none" stroke-width="1" fill="none" fill-rule="evenodd">
        <g id="Glyph/Inprogress" fill-rule="nonzero" fill="#000000">
            <g id="e9f2">
                <path d="M7,12.5 C7.4833985,12.5 7.958252,12.438965 8.4245605,12.3168945 C8.890869,12.194824 9.3339845,12.01416 9.753906,11.7749025 L10.215332,12.5878905 C9.722168,12.866211 9.20459,13.0773925 8.6625975,13.2214355 C8.1206055,13.3654785 7.566406,13.4375 7,13.4375 C6.326172,13.4375 5.6706545,13.3361815 5.0334475,13.133545 C4.39624,12.930908 3.801758,12.63916 3.25,12.258301 L3.25,13.4375 L2.3125,13.4375 L2.3125,10.625 L5.125,10.625 L5.125,11.5625 L3.894531,11.5625 C4.3535155,11.870117 4.8466795,12.1032715 5.3740235,12.261963 C5.901367,12.4206545 6.4433595,12.5 7,12.5 Z M13.5625,6.875 C13.5625,7.548828 13.4611815,8.2043455 13.258545,8.8415525 C13.055908,9.47876 12.76416,10.073242 12.383301,10.625 L13.5625,10.625 L13.5625,11.5625 L10.75,11.5625 L10.75,8.75 L11.6875,8.75 L11.6875,9.980469 C11.995117,9.5214845 12.2282715,9.0283205 12.386963,8.5009765 C12.5456545,7.973633 12.625,7.4316405 12.625,6.875 C12.625,6.3916015 12.563965,5.916748 12.4418945,5.4504395 C12.319824,4.984131 12.13916,4.5410155 11.8999025,4.121094 L12.7128905,3.659668 C12.991211,4.152832 13.2023925,4.67041 13.3464355,5.2124025 C13.4904785,5.7543945 13.5625,6.308594 13.5625,6.875 Z M2.3125,3.7768555 C2.004883,4.23584 1.7717285,4.729004 1.613037,5.2563475 C1.4543455,5.7836915 1.375,6.323242 1.375,6.875 C1.375,7.3583985 1.436035,7.833252 1.5581055,8.2995605 C1.680176,8.765869 1.86084,9.2089845 2.1000975,9.628906 L1.2871095,10.090332 C1.008789,9.597168 0.7976075,9.07959 0.6535645,8.5375975 C0.5095215,7.9956055 0.4375,7.441406 0.4375,6.875 C0.4375,6.201172 0.5388185,5.5456545 0.741455,4.9084475 C0.944092,4.27124 1.238281,3.676758 1.6240235,3.125 L0.4375,3.125 L0.4375,2.1875 L3.25,2.1875 L3.25,5 L2.3125,5 L2.3125,3.7768555 Z M7,1.25 C6.506836,1.25 6.025879,1.312256 5.557129,1.4367675 C5.088379,1.5612795 4.63916,1.748047 4.2094725,1.9970705 L3.748047,1.184082 C4.246094,0.900879 4.7685545,0.6848145 5.3154295,0.5358885 C5.8623045,0.386963 6.423828,0.3125 7,0.3125 C7.673828,0.3125 8.3293455,0.4138185 8.9665525,0.616455 C9.60376,0.819092 10.198242,1.11084 10.75,1.491699 L10.75,0.3125 L11.6875,0.3125 L11.6875,3.125 L8.875,3.125 L8.875,2.1875 L10.105469,2.1875 C9.6464845,1.879883 9.1533205,1.6467285 8.6259765,1.488037 C8.098633,1.3293455 7.5566405,1.25 7,1.25 Z" id="Shape"></path>
            </g>
        </g>
    </g>
</svg>