<?xml version="1.0" encoding="UTF-8" standalone="no"?>
<!-- Generator: Adobe Illustrator 17.0.1, SVG Export Plug-In . SVG Version: 6.00 Build 0)  -->

<svg
   xmlns:dc="http://purl.org/dc/elements/1.1/"
   xmlns:cc="http://creativecommons.org/ns#"
   xmlns:rdf="http://www.w3.org/1999/02/22-rdf-syntax-ns#"
   xmlns:svg="http://www.w3.org/2000/svg"
   xmlns="http://www.w3.org/2000/svg"
   xmlns:sodipodi="http://sodipodi.sourceforge.net/DTD/sodipodi-0.dtd"
   xmlns:inkscape="http://www.inkscape.org/namespaces/inkscape"
   version="1.1"
   id="Layer_1"
   x="0px"
   y="0px"
   width="50px"
   height="50px"
   viewBox="0 0 50 50"
   enable-background="new 0 0 50 50"
   xml:space="preserve"
   sodipodi:docname="loading.svg"
   inkscape:version="0.92.3 (2405546, 2018-03-11)"><metadata
   id="metadata11"><rdf:RDF><cc:Work
       rdf:about=""><dc:format>image/svg+xml</dc:format><dc:type
         rdf:resource="http://purl.org/dc/dcmitype/StillImage" /></cc:Work></rdf:RDF></metadata><defs
   id="defs9" /><sodipodi:namedview
   pagecolor="#ffffff"
   bordercolor="#666666"
   borderopacity="1"
   objecttolerance="10"
   gridtolerance="10"
   guidetolerance="10"
   inkscape:pageopacity="0"
   inkscape:pageshadow="2"
   inkscape:window-width="2560"
   inkscape:window-height="1387"
   id="namedview7"
   showgrid="false"
   inkscape:zoom="4.72"
   inkscape:cx="25"
   inkscape:cy="25"
   inkscape:window-x="-8"
   inkscape:window-y="-8"
   inkscape:window-maximized="1"
   inkscape:current-layer="Layer_1" />
  <ellipse
   style="fill:#ffffff;stroke-width:1.01934814"
   id="path13"
   cx="25.211864"
   cy="25.423729"
   rx="25.211864"
   ry="25" /><path
   d="m 25.326272,42.993341 c 1.552416,0 3.077388,-0.186174 4.57492,-0.558478 1.497532,-0.37232 2.920579,-0.923354 4.269141,-1.653097 l 1.481851,2.479646 c -1.583777,0.848888 -3.245958,1.493001 -4.986546,1.932339 -1.740586,0.439337 -3.520376,0.659003 -5.339366,0.659003 -2.163972,0 -4.269142,-0.309024 -6.315507,-0.927075 -2.046367,-0.618052 -3.955522,-1.507894 -5.727472,-2.66953 v 3.596605 h -3.010744 v -8.578238 h 9.032233 v 2.859413 h -3.951603 c 1.474011,0.938244 3.057788,1.649376 4.751332,2.13339 1.693543,0.484017 3.434131,0.726022 5.221761,0.726022 z M 46.401484,25.836864 c 0,2.055203 -0.32538,4.054558 -0.976141,5.998065 -0.650761,1.943509 -1.587698,3.756703 -2.810811,5.439587 h 3.786952 v 2.859413 h -9.032235 v -8.57824 h 3.010745 v 3.752981 c 0.9879,-1.399921 1.736669,-2.904091 2.246298,-4.512511 0.509633,-1.60842 0.764447,-3.261519 0.764447,-4.959295 0,-1.474385 -0.196012,-2.922707 -0.588034,-4.344966 -0.392027,-1.422261 -0.972223,-2.773781 -1.740587,-4.054558 l 2.610879,-1.407368 c 0.893814,1.50417 1.572018,3.082804 2.034605,4.735903 0.462589,1.653097 0.693882,3.343429 0.693882,5.070989 z M 10.272549,16.387399 c -0.9879005,1.39992 -1.7366671,2.904091 -2.2462987,4.51251 -0.5096315,1.608421 -0.7644464,3.254071 -0.7644464,4.936955 0,1.474386 0.1960115,2.922707 0.5880362,4.344968 0.3920245,1.422258 0.9722199,2.77378 1.740586,4.054557 L 6.979547,35.643757 C 6.0857315,34.139587 5.4075305,32.560954 4.9449421,30.907853 4.4823536,29.254757 4.2510593,27.564425 4.2510593,25.836864 c 0,-2.055202 0.3253805,-4.054557 0.9761396,-5.998064 0.6507608,-1.943509 1.5955372,-3.756702 2.8343342,-5.439587 H 4.2510593 V 11.5398 h 9.0322337 v 8.578239 H 10.272549 Z M 25.326272,8.6803874 c -1.583777,0 -3.128352,0.1898833 -4.633724,0.5696484 -1.505373,0.3797666 -2.948022,0.9494152 -4.327946,1.7089472 l -1.48185,-2.4796482 c 1.599458,-0.8637805 3.277319,-1.522786 5.033586,-1.9770163 1.756268,-0.4542287 3.559579,-0.6813439 5.409934,-0.6813439 2.163971,0 4.26914,0.3090255 6.315506,0.927075 2.046367,0.6180509 3.955522,1.5078942 5.727471,2.6695296 V 5.8209746 h 3.010745 V 14.399213 H 31.347761 V 11.5398 h 3.951603 C 33.825352,10.601556 32.241577,9.8904253 30.548031,9.4064099 28.854488,8.9223943 27.113901,8.6803874 25.326272,8.6803874 Z"
   id="path4"
   inkscape:connector-curvature="0"
   style="fill:#000000;stroke-width:3.12970996" /><ellipse
   fill="#fff"
   cx="25"
   cy="25"
   rx="25"
   id="ellipse2" />ry=&quot;25&quot; /&gt;
  
</svg>