<?xml version="1.0" encoding="utf-8"?>
<!-- Generator: Adobe Illustrator 21.0.0, SVG Export Plug-In . SVG Version: 6.00 Build 0)  -->
<svg version="1.1" id="Layer_1" xmlns="http://www.w3.org/2000/svg" xmlns:xlink="http://www.w3.org/1999/xlink" x="0px" y="0px"
	 width="50px" height="50px" viewBox="0 0 50 50" enable-background="new 0 0 50 50" xml:space="preserve">
<path fill="#59b4d9" d="M 43 15.9 c 0 4.9 -3.9 8.8 -8.8 8.8 s -8.8 -3.9 -8.8 -8.8 c 0.1 -4.9 4 -8.8 8.8 -8.8 c 4.9 0 8.8 3.9 8.8 8.8 m -2.4 11.9 l -6.4 9 l -6.4 -9 h -9.3 V 50 H 50 V 27.8 Z" />
<path fill="#fff" opacity="0.2" d="M 25.5 15.9 c 0 4.8 3.9 8.7 8.6 8.8 l 2.2 -17.3 c -0.7 -0.3 -1.4 -0.3 -2.1 -0.3 c -4.8 0 -8.7 3.9 -8.7 8.8 m 2.3 11.9 h -9.3 V 50 h 12.4 l 1.9 -15.3 Z" />
<path fill="#a0a1a2" d="M 5.6 18.4 l 4.9 5.2 h -4 L 0 16.9 l 6.5 -6.7 h 4 l -4.9 5.1 H 20 v 3.1 Z" />
<path fill="#a0a1a2" d="M 20 0 v 18.4 h -3.1 V 0 Z" />
</svg>
