<?xml version="1.0" encoding="utf-8"?>
<!-- Generator: Adobe Illustrator 17.1.0, SVG Export Plug-In . SVG Version: 6.00 Build 0)  -->
<!DOCTYPE svg PUBLIC "-//W3C//DTD SVG 1.1//EN" "http://www.w3.org/Graphics/SVG/1.1/DTD/svg11.dtd">
<svg version="1.1" id="Layer_1" xmlns="http://www.w3.org/2000/svg" xmlns:xlink="http://www.w3.org/1999/xlink" x="0px" y="0px"
	 width="50px" height="50px" viewBox="0 0 50 50" enable-background="new 0 0 50 50" xml:space="preserve">
<path fill="#59b4d9" d="M 40.81 26.821 c -0.445 -0.681 -1.01 -1.249 -1.696 -1.705 s -1.464 -0.754 -2.335 -0.897 a 6.228 6.228 0 0 0 -2.547 0.098 c -0.828 0.208 -1.58 0.56 -2.255 1.058 a 6.749 6.749 0 0 0 -1.718 1.871 c -0.47 0.75 -0.782 1.601 -0.938 2.553 c -0.161 0.982 -0.151 1.925 0.029 2.828 s 0.504 1.712 0.972 2.428 a 6.37 6.37 0 0 0 1.78 1.804 a 6.06 6.06 0 0 0 2.454 0.955 c 0.88 0.144 1.722 0.097 2.526 -0.141 a 5.98 5.98 0 0 0 2.165 -1.159 a 6.917 6.917 0 0 0 1.618 -2.005 c 0.44 -0.801 0.74 -1.693 0.901 -2.676 a 7.488 7.488 0 0 0 -0.028 -2.703 a 6.578 6.578 0 0 0 -0.928 -2.309 Z" />
<path fill="#59b4d9" d="M 60.399 33.594 a 10.34 10.34 0 0 0 -4.019 -3.315 c 0.126 -0.413 0.246 -0.838 0.361 -1.275 c 0.115 -0.437 0.173 -0.935 0.173 -1.494 c 0 -1.433 -0.251 -2.781 -0.754 -4.044 a 11.25 11.25 0 0 0 -2.072 -3.37 a 9.958 9.958 0 0 0 -3.061 -2.331 a 8.324 8.324 0 0 0 -3.721 -0.856 c -2.533 0 -4.438 0.741 -5.714 2.222 c -0.649 -2.623 -1.842 -4.633 -3.579 -6.029 s -3.736 -2.095 -5.997 -2.095 c -1.444 0 -2.784 0.297 -4.019 0.892 a 10.102 10.102 0 0 0 -3.25 2.495 c -0.931 1.069 -1.659 2.331 -2.182 3.789 c -0.523 1.457 -0.785 3.024 -0.785 4.699 c 0 0.17 0.016 0.37 0.047 0.601 c 0.031 0.231 0.058 0.431 0.078 0.601 c -0.398 -0.17 -0.89 -0.304 -1.476 -0.401 a 11.136 11.136 0 0 0 -1.821 -0.146 c -0.649 0 -1.287 0.128 -1.915 0.383 a 7.313 7.313 0 0 0 -1.758 1.02 a 11.4 11.4 0 0 0 -1.523 1.447 c -0.47 0.536 -0.863 0.613 -1.177 1.613 H 10.32 a 6.564 6.564 0 0 0 -3.155 0.793 a 9.222 9.222 0 0 0 -2.637 2.127 a 10.649 10.649 0 0 0 -1.837 3.076 A 9.813 9.813 0 0 0 2 37.638 c 0 1.481 0.23 2.859 0.691 4.134 c 0.46 1.275 1.073 2.368 1.837 3.278 c 0.764 0.911 1.643 1.636 2.637 2.158 A 6.69 6.69 0 0 0 10.32 48 h 44.647 c 0.837 0 1.669 -0.264 2.496 -0.774 s 1.58 -1.182 2.261 -2.008 c 0.68 -0.826 1.23 -1.775 1.648 -2.844 A 8.812 8.812 0 0 0 62 39.132 c 0 -2.234 -0.534 -4.081 -1.601 -5.538 Z m -15.745 -1.286 a 10.436 10.436 0 0 1 -0.774 2.595 a 11.176 11.176 0 0 1 -1.346 2.26 a 10.8 10.8 0 0 1 -1.789 1.829 c -0.662 0.531 -1.361 0.966 -2.096 1.303 c -0.735 0.337 -1.495 0.569 -2.281 0.695 s -1.563 0.126 -2.332 0.001 c -0.611 -0.1 -1.143 -0.221 -1.595 -0.362 a 7.187 7.187 0 0 1 -1.21 -0.494 a 5.86 5.86 0 0 1 -0.941 -0.614 a 9.162 9.162 0 0 1 -0.788 -0.721 l -8.208 6.503 c -0.456 0.289 -0.92 0.395 -1.393 0.318 a 1.998 1.998 0 0 1 -0.751 -0.294 a 2.564 2.564 0 0 1 -0.666 -0.639 a 2.234 2.234 0 0 1 -0.43 -0.944 a 2.91 2.91 0 0 1 0.318 -1.991 c 0.169 -0.305 0.379 -0.557 0.63 -0.755 l 7.906 -6.225 c -0.35 -0.941 -0.547 -1.86 -0.59 -2.756 c -0.044 -0.896 0.008 -1.79 0.153 -2.681 c 0.147 -0.901 0.41 -1.75 0.787 -2.546 c 0.377 -0.796 0.836 -1.522 1.376 -2.177 a 9.835 9.835 0 0 1 1.829 -1.721 c 0.68 -0.492 1.394 -0.893 2.143 -1.201 c 0.749 -0.309 1.522 -0.515 2.319 -0.619 s 1.584 -0.092 2.362 0.035 a 7.707 7.707 0 0 1 2.281 0.747 a 8.67 8.67 0 0 1 1.957 1.373 c 0.59 0.549 1.111 1.17 1.564 1.862 a 10.453 10.453 0 0 1 1.645 4.676 a 9.645 9.645 0 0 1 -0.08 2.543 Z" />
</svg>
