<?xml version="1.0" encoding="utf-8"?>
<!-- Generator: Adobe Illustrator 17.0.1, SVG Export Plug-In . SVG Version: 6.00 Build 0)  -->
<!DOCTYPE svg PUBLIC "-//W3C//DTD SVG 1.1//EN" "http://www.w3.org/Graphics/SVG/1.1/DTD/svg11.dtd">
<svg version="1.1" id="Layer_1" xmlns="http://www.w3.org/2000/svg" xmlns:xlink="http://www.w3.org/1999/xlink" x="0px" y="0px"
	 width="50px" height="50px" viewBox="-0.5 0.5 200 200" enable-background="new -0.5 0.5 50 50" xml:space="preserve">
<path fill="#0072c6" d="M 192.1 119.1 l -73 73 c -10.6 10.6 -27.7 10.6 -38.2 0 l -73 -73 c -10.6 -10.6 -10.6 -27.7 0 -38.2 l 73 -73 c 10.6 -10.6 27.7 -10.6 38.2 0 l 73 73 c 10.5 10.5 10.5 27.7 0 38.2 Z" />
<path fill="#fff" opacity="0.15" d="M 37.1 148.3 L 7.9 119.1 c -10.6 -10.6 -10.6 -27.7 0 -38.2 l 73 -73 c 10.6 -10.6 27.7 -10.6 38.2 0 l 17.7 17.7 l -99.7 122.7 Z" />
<path fill="#7fba00" d="M 79.4 26.8 v 40 c 0 4.2 9.3 7.5 20.8 7.5 V 26.8 H 79.4 Z" />
<path fill="#bad80a" d="M 99.9 74.3 h 0.3 c 11.5 0 20.8 -3.4 20.8 -7.5 v -40 H 99.9 v 47.5 Z" />
<path fill="#fff" d="M 121 26.8 c 0 4.2 -9.3 7.5 -20.8 7.5 S 79.4 31 79.4 26.8 s 9.3 -7.5 20.8 -7.5 s 20.8 3.3 20.8 7.5" />
<path fill="#7fba00" d="M 116.7 26.4 c 0 2.7 -7.4 5 -16.5 5 s -16.5 -2.2 -16.5 -5 c 0 -2.7 7.4 -5 16.5 -5 s 16.5 2.2 16.5 5 M 78.9 136.3 v 40 c 0 4.2 9.3 7.5 20.8 7.5 v -47.5 H 78.9 Z" />
<path fill="#bad80a" d="M 99.4 183.9 h 0.3 c 11.5 0 20.8 -3.4 20.8 -7.5 v -40 H 99.4 v 47.5 Z" />
<path fill="#fff" d="M 120.5 136.3 c 0 4.2 -9.3 7.5 -20.8 7.5 s -20.8 -3.4 -20.8 -7.5 s 9.3 -7.5 20.8 -7.5 s 20.8 3.4 20.8 7.5" />
<path fill="#7fba00" d="M 116.2 135.9 c 0 2.7 -7.4 5 -16.5 5 s -16.5 -2.2 -16.5 -5 c 0 -2.7 7.4 -5 16.5 -5 s 16.5 2.3 16.5 5 M 25.4 80.5 v 40 c 0 4.2 9.3 7.5 20.8 7.5 V 80.5 H 25.4 Z" />
<path fill="#bad80a" d="M 45.9 128.1 h 0.3 c 11.5 0 20.8 -3.4 20.8 -7.5 v -40 H 45.9 v 47.5 Z" />
<path fill="#fff" d="M 67 80.5 c 0 4.2 -9.3 7.5 -20.8 7.5 s -20.8 -3.4 -20.8 -7.5 c 0 -4.2 9.3 -7.5 20.8 -7.5 S 67 76.4 67 80.5" />
<path fill="#7fba00" d="M 62.7 80.1 c 0 2.7 -7.4 5 -16.5 5 s -16.5 -2.2 -16.5 -5 c 0 -2.7 7.4 -5 16.5 -5 s 16.5 2.2 16.5 5 m 69.1 -0.1 v 40 c 0 4.2 9.3 7.5 20.8 7.5 V 80 h -20.8 Z" />
<path fill="#bad80a" d="M 152.3 127.5 h 0.3 c 11.5 0 20.8 -3.4 20.8 -7.5 V 80 h -21.1 v 47.5 Z" />
<path fill="#fff" d="M 173.4 80 c 0 4.2 -9.3 7.5 -20.8 7.5 s -20.8 -3.4 -20.8 -7.5 c 0 -4.2 9.3 -7.5 20.8 -7.5 s 20.8 3.3 20.8 7.5" />
<path fill="#7fba00" d="M 169.1 79.6 c 0 2.7 -7.4 5 -16.5 5 s -16.5 -2.2 -16.5 -5 c 0 -2.7 7.4 -5 16.5 -5 s 16.5 2.2 16.5 5" />
</svg>
