<?xml version="1.0" encoding="utf-8"?>
<!-- Generator: Adobe Illustrator 17.0.1, SVG Export Plug-In . SVG Version: 6.00 Build 0)  -->
<!DOCTYPE svg PUBLIC "-//W3C//DTD SVG 1.1//EN" "http://www.w3.org/Graphics/SVG/1.1/DTD/svg11.dtd">
<svg version="1.1" id="Layer_1" xmlns="http://www.w3.org/2000/svg" xmlns:xlink="http://www.w3.org/1999/xlink" x="0px" y="0px"
	 width="50px" height="50px" viewBox="0 0 50 50" enable-background="new 0 0 50 50" xml:space="preserve">
<path fill="#7fba00" d="M 50 37.198 c 0 5.001 -11.194 9.054 -25 9.054 S 0 42.199 0 37.198 v -4.88 h 50 v 4.88 Z" />
<path fill="#b8d432" d="M 50 32.318 c 0 5.001 -11.194 9.054 -25 9.054 S 0 37.319 0 32.318 c 0 -5 11.193 -9.054 25 -9.054 s 25 4.054 25 9.054" />
<path fill="#7fba00" d="M 33.013 31.797 c 0 1.33 -3.588 2.407 -8.014 2.407 s -8.015 -1.077 -8.015 -2.407 s 3.589 -2.407 8.015 -2.407 s 8.014 1.078 8.014 2.407" />
<path fill="#fff" opacity="0.25" d="M 43.071 26.115 c -3.502 -1.327 -8.104 -2.269 -13.279 -2.633 l -3.244 6.004 c 1.596 0.094 3.023 0.329 4.127 0.662 l 12.396 -4.033 Z M 5.902 38.208 c 3.601 1.543 8.598 2.643 14.288 3.045 l 3.793 -7.02 c -1.579 -0.06 -3.014 -0.257 -4.168 -0.552 L 5.902 38.208 Z" />
<path fill="#0072c6" d="M 50 17.682 c 0 5.001 -11.194 9.054 -25 9.054 S 0 22.682 0 17.682 v -4.88 h 50 v 4.88 Z" />
<path fill="#59b4d9" d="M 50 12.802 c 0 5.001 -11.194 9.054 -25 9.054 S 0 17.802 0 12.802 s 11.193 -9.054 25 -9.054 s 25 4.053 25 9.054" />
<path fill="#0072c6" d="M 33.013 12.281 c 0 1.33 -3.588 2.407 -8.014 2.407 s -8.015 -1.077 -8.015 -2.407 s 3.589 -2.407 8.015 -2.407 s 8.014 1.077 8.014 2.407" />
<path fill="#fff" opacity="0.25" d="M 43.071 6.549 c -3.502 -1.327 -8.104 -2.269 -13.279 -2.633 L 26.548 9.92 c 1.596 0.094 3.023 0.329 4.127 0.662 l 12.396 -4.033 Z M 5.902 18.642 c 3.601 1.543 8.598 2.643 14.288 3.045 l 3.793 -7.02 c -1.579 -0.06 -3.014 -0.257 -4.168 -0.552 L 5.902 18.642 Z" />
</svg>
