<?xml version="1.0" encoding="utf-8"?>
<!-- Generator: Adobe Illustrator 17.0.1, SVG Export Plug-In . SVG Version: 6.00 Build 0)  -->
<!DOCTYPE svg PUBLIC "-//W3C//DTD SVG 1.1//EN" "http://www.w3.org/Graphics/SVG/1.1/DTD/svg11.dtd">
<svg version="1.1" id="Layer_1" xmlns="http://www.w3.org/2000/svg" xmlns:xlink="http://www.w3.org/1999/xlink" x="0px" y="0px"
	 width="50px" height="50px" viewBox="0 0 50 50" enable-background="new 0 0 50 50" xml:space="preserve">

<style type="text/css">
	.msportalfx-svg-c01{fill:#fff;}
	.msportalfx-svg-c05{fill:#777;}
	.msportalfx-svg-c06{fill:#1e1e1e;}
	.msportalfx-svg-c13{fill:#b8d432;}
	.msportalfx-svg-c15{fill:#59b4d9;}
</style>

<path class="msportalfx-svg-c05" d="M 29.364 47.462 A 2.538 2.538 0 0 1 26.826 50 H 2.538 A 2.538 2.538 0 0 1 0 47.462 V 2.538 A 2.538 2.538 0 0 1 2.538 0 h 24.288 a 2.538 2.538 0 0 1 2.538 2.538 v 44.924 Z" />
<path class="msportalfx-svg-c06" d="M 4.316 27.024 a 3.191 3.191 0 0 1 3.191 -3.191 h 14.614 a 3.191 3.191 0 0 1 0 6.382 H 7.507 a 3.19 3.19 0 0 1 -3.191 -3.191 Z" />
<circle class="msportalfx-svg-c13" cx="7.643" cy="27.024" r="2.142" />
<path class="msportalfx-svg-c06" d="M 4.316 17.545 a 3.191 3.191 0 0 1 3.191 -3.191 h 14.614 a 3.191 3.191 0 0 1 0 6.382 H 7.507 a 3.191 3.191 0 0 1 -3.191 -3.191 Z" />
<circle class="msportalfx-svg-c13" cx="7.643" cy="17.545" r="2.142" />
<path class="msportalfx-svg-c06" d="M 4.316 8.065 a 3.191 3.191 0 0 1 3.191 -3.191 h 14.614 a 3.191 3.191 0 0 1 0 6.382 H 7.507 a 3.19 3.19 0 0 1 -3.191 -3.191 Z" />
<circle class="msportalfx-svg-c13" cx="7.643" cy="8.065" r="2.142" />
<path class="msportalfx-svg-c15" d="M 49.949 45.373 c 0 -2.555 -2.051 -4.626 -4.585 -4.626 c -0.191 0 -0.379 0.015 -0.559 0.04 c 0.28 -1.039 0.434 -2.132 0.434 -3.261 c 0 -6.81 -5.475 -12.331 -12.227 -12.331 c -5.395 0 -9.969 3.523 -11.594 8.413 a 8.206 8.206 0 0 0 -2.73 -0.471 c -4.619 0 -8.357 3.775 -8.357 8.43 c 0 4.658 3.738 8.433 8.357 8.433 l 0.012 -0.003 V 50 h 27.036 l -0.005 -0.023 c 2.359 -0.186 4.218 -2.173 4.218 -4.604" />
<path class="msportalfx-svg-c01" opacity="0.2" d="M 23.128 50 a 8.447 8.447 0 0 1 -2.29 -4.123 c -1.036 -4.538 1.768 -9.051 6.271 -10.079 a 8.207 8.207 0 0 1 2.766 -0.149 c 0.409 -4.24 2.995 -8.011 6.848 -9.872 a 12.117 12.117 0 0 0 -3.712 -0.583 c -5.395 0 -9.969 3.523 -11.594 8.413 a 8.201 8.201 0 0 0 -2.73 -0.471 c -4.619 0 -8.357 3.775 -8.357 8.43 c 0 4.658 3.738 8.433 8.357 8.433 l 0.012 -0.003 V 50 h 4.429 Z" />

</svg>
