<?xml version="1.0" encoding="utf-8"?>
<!-- Generator: Adobe Illustrator 19.1.0, SVG Export Plug-In . SVG Version: 6.00 Build 0)  -->
<svg version="1.1" id="Layer_1" xmlns="http://www.w3.org/2000/svg" xmlns:xlink="http://www.w3.org/1999/xlink" x="0px" y="0px"
	 width="50px" height="50px" viewBox="-454 256 50 50" style="enable-background:new -454 256 50 50;" xml:space="preserve">
<path fill="#59b4d9" d="M 42 11.318 C 41.64 4.74 36.015 -0.301 29.437 0.059 A 11.926 11.926 0 0 0 20.4 5.011 a 9.444 9.444 0 0 0 -14.932 9.8 A 8.97 8.97 0 0 0 9.164 31.95 h 30.378 c 5.779 -0.003 10.461 -4.689 10.458 -10.468 a 10.463 10.463 0 0 0 -8 -10.164 Z" />
<path fill="#804998" d="M 13.1 21.95 a 1 1 0 0 0 -1 1 v 26 a 1 1 0 0 0 1 1 h 24 a 1 1 0 0 0 1 -1 v -26 a 1 1 0 0 0 -1 -1 h -24 Z" />
<path fill="#fff" d="M 23.1 21.95 v -7 h -3 l 5 -7 l 5 7 h -3 v 7 Z m 10 3 h -18 v 22 h 20 v -22 h -2 Z" />
<path fill="#804998" d="M 17.067 26.95 h 4 v 18 h -4 Z m 6 0 h 4 v 18 h -4 Z m 6 0 h 4 v 18 h -4 Z" />
</svg>
