<?xml version="1.0" encoding="utf-8"?>
<!-- Generator: Adobe Illustrator 19.1.0, SVG Export Plug-In . SVG Version: 6.00 Build 0)  -->
<svg version="1.1" id="Layer_1" xmlns="http://www.w3.org/2000/svg" xmlns:xlink="http://www.w3.org/1999/xlink" x="0px" y="0px"
	 width="50px" height="50px" viewBox="0 0 50 50" enable-background="new 0 0 50 50" xml:space="preserve">
<path fill="#b8d432" d="M 37.8 13.1 l -3.3 -3.3 l -10.7 10.8 l 10.7 10.8 l 3.3 -3.1 l -7.3 -7.4 Z m -25.6 9.1 l 7.3 7.3 l -7.3 7.4 l 3.3 3.3 l 10.7 -10.8 l -10.7 -10.8 Z" />
<path fill="#59b4d9" d="M 25 0 C 11.1 0 0 11.4 0 25 c 0 13.9 11.4 25 25 25 s 25 -11.4 25 -25 S 38.9 0 25 0 Z m 0 3.3 C 37 3.3 46.7 13 46.7 25 S 36.9 46.7 25 46.7 S 3.3 36.9 3.3 25 S 13 3.3 25 3.3 Z" />
</svg>
