<?xml version="1.0" encoding="utf-8"?>
<!-- Generator: Adobe Illustrator 21.1.0, SVG Export Plug-In . SVG Version: 6.00 Build 0)  -->
<svg version="1.1" id="Layer_1" xmlns="http://www.w3.org/2000/svg" xmlns:xlink="http://www.w3.org/1999/xlink" x="0px" y="0px"
	 width="15px" height="15px" viewBox="0 0 15 15" style="enable-background:new 0 0 15 15;" xml:space="preserve">
<g>
	<path style="fill:#393939;" d="M13,7.3c0,0,0,0.1,0,0.1c0,0,0,0.1,0,0.1s0,0.1,0,0.1c0,0,0,0.1,0,0.1L14.9,9l-1.2,2.8l-2.2-0.5
		c-0.1,0.1-0.2,0.3-0.4,0.4l0.5,2.2L8.9,15l-1.2-1.9c0,0-0.1,0-0.1,0c0,0-0.1,0-0.1,0s-0.1,0-0.1,0c0,0-0.1,0-0.1,0L6,15l-2.8-1.2
		l0.5-2.2c-0.1-0.1-0.3-0.2-0.4-0.4l-2.2,0.5L-0.1,9l1.9-1.2c0,0,0-0.1,0-0.1c0,0,0-0.1,0-0.1s0-0.1,0-0.1c0,0,0-0.1,0-0.1l-1.9-1.2
		l1.2-2.8l2.2,0.5c0.1-0.1,0.2-0.3,0.4-0.4L3.2,1.2L6,0l1.2,1.9c0,0,0.1,0,0.1,0c0,0,0.1,0,0.1,0s0.1,0,0.1,0c0,0,0.1,0,0.1,0L8.9,0
		l2.8,1.2l-0.5,2.2c0.1,0.1,0.3,0.2,0.4,0.4l2.2-0.5l1.2,2.8L13,7.3z M12.2,8.2c0-0.1,0-0.2,0-0.3c0-0.1,0-0.2,0-0.3
		c0-0.1,0-0.2,0-0.3c0-0.1,0-0.2,0-0.3l1.7-1.1l-0.6-1.5l-2,0.5c-0.2-0.2-0.3-0.4-0.5-0.5c-0.2-0.2-0.3-0.3-0.5-0.5l0.5-2L9.2,1.1
		L8.1,2.8c-0.1,0-0.2,0-0.3,0c-0.1,0-0.2,0-0.3,0c-0.1,0-0.2,0-0.3,0c-0.1,0-0.2,0-0.3,0L5.7,1.1L4.1,1.7l0.5,2
		C4.4,3.8,4.2,4,4.1,4.2C3.9,4.3,3.8,4.5,3.6,4.7l-2-0.5L1,5.7l1.7,1.1c0,0.1,0,0.2,0,0.3c0,0.1,0,0.2,0,0.3c0,0.1,0,0.2,0,0.3
		c0,0.1,0,0.2,0,0.3L1,9.3l0.6,1.5l2-0.5c0.2,0.2,0.3,0.4,0.5,0.5c0.2,0.2,0.3,0.3,0.5,0.5l-0.5,2L5.7,14l1.1-1.7c0.1,0,0.2,0,0.3,0
		c0.1,0,0.2,0,0.3,0c0.1,0,0.2,0,0.3,0c0.1,0,0.2,0,0.3,0L9.2,14l1.5-0.6l-0.5-2c0.2-0.2,0.4-0.3,0.5-0.5c0.2-0.2,0.3-0.3,0.5-0.5
		l2,0.5l0.6-1.5L12.2,8.2z M7.4,4.8c0.4,0,0.7,0.1,1.1,0.2c0.3,0.1,0.6,0.3,0.9,0.6S9.8,6.1,10,6.4c0.1,0.3,0.2,0.7,0.2,1.1
		S10.1,8.3,10,8.6C9.8,8.9,9.6,9.2,9.4,9.5s-0.5,0.4-0.9,0.6c-0.3,0.1-0.7,0.2-1.1,0.2s-0.7-0.1-1.1-0.2C6,9.9,5.7,9.7,5.5,9.5
		S5,8.9,4.9,8.6C4.7,8.3,4.7,7.9,4.7,7.5s0.1-0.7,0.2-1.1C5,6.1,5.2,5.8,5.5,5.6S6,5.1,6.4,5C6.7,4.8,7.1,4.8,7.4,4.8z M7.4,9.5
		c0.3,0,0.5-0.1,0.8-0.2c0.2-0.1,0.4-0.2,0.6-0.4C9,8.7,9.1,8.5,9.2,8.3C9.3,8,9.4,7.8,9.4,7.5S9.3,7,9.2,6.8S9,6.3,8.8,6.1
		C8.6,6,8.4,5.8,8.2,5.7C8,5.6,7.7,5.6,7.4,5.6c-0.3,0-0.5,0.1-0.8,0.2C6.4,5.8,6.2,6,6.1,6.1S5.7,6.5,5.6,6.8
		C5.5,7,5.5,7.3,5.5,7.5S5.5,8,5.6,8.3c0.1,0.2,0.2,0.4,0.4,0.6c0.2,0.2,0.4,0.3,0.6,0.4S7.2,9.5,7.4,9.5z"/>
</g>
</svg>
